<?xml version="1.0" ?><svg id="Layer_1" style="enable-background:new 0 0 65 65;" version="1.1" viewBox="0 0 65 65" xml:space="preserve" xmlns="http://www.w3.org/2000/svg" xmlns:xlink="http://www.w3.org/1999/xlink"><style type="text/css">
	.st0{fill:#1C1F20;}
</style><g><path class="st0" d="M63.5,5.8c-0.4,0-0.8,0.3-0.8,0.8v8c0,0.4,0.3,0.8,0.8,0.8s0.8-0.3,0.8-0.8v-8C64.3,6.1,63.9,5.8,63.5,5.8z"/><path class="st0" d="M63.5,17.8c-0.4,0-0.8,0.3-0.8,0.8v1c0,0.4,0.3,0.8,0.8,0.8s0.8-0.3,0.8-0.8v-1C64.3,18.1,63.9,17.8,63.5,17.8   z"/><path class="st0" d="M16.5,62.8h-9c-0.4,0-0.8,0.3-0.8,0.8s0.3,0.8,0.8,0.8h9c0.4,0,0.8-0.3,0.8-0.8S16.9,62.8,16.5,62.8z"/><path class="st0" d="M3.5,62.8h-2c-0.4,0-0.8,0.3-0.8,0.8s0.3,0.8,0.8,0.8h2c0.4,0,0.8-0.3,0.8-0.8S3.9,62.8,3.5,62.8z"/><path class="st0" d="M7.3,59.5v-1.3h1.3c0.4,0,0.8-0.3,0.8-0.8s-0.3-0.8-0.8-0.8H7.3v-1.3c0-0.4-0.3-0.8-0.8-0.8s-0.8,0.3-0.8,0.8   v1.3H4.5c-0.4,0-0.8,0.3-0.8,0.8s0.3,0.8,0.8,0.8h1.3v1.3c0,0.4,0.3,0.8,0.8,0.8S7.3,59.9,7.3,59.5z"/><path class="st0" d="M52.5,4.3h1.3v1.3c0,0.4,0.3,0.8,0.8,0.8s0.8-0.3,0.8-0.8V4.3h1.3c0.4,0,0.8-0.3,0.8-0.8s-0.3-0.8-0.8-0.8   h-1.3V1.5c0-0.4-0.3-0.8-0.8-0.8s-0.8,0.3-0.8,0.8v1.3h-1.3c-0.4,0-0.8,0.3-0.8,0.8S52.1,4.3,52.5,4.3z"/><path class="st0" d="M32.5,19.8c-7,0-12.7,5.7-12.7,12.8s5.7,12.8,12.7,12.8s12.8-5.7,12.8-12.8S39.5,19.8,32.5,19.8z M32.5,43.8   c-6.2,0-11.2-5-11.2-11.3s5-11.3,11.2-11.3s11.3,5,11.3,11.3S38.7,43.8,32.5,43.8z"/><path class="st0" d="M33.5,5.5c0-0.6-0.4-1-1-1c-0.6,0-1,0.4-1,1c0,0.6,0.4,1,1,1C33.1,6.5,33.5,6.1,33.5,5.5z"/><circle class="st0" cx="32.5" cy="59.5" r="1"/><path class="st0" d="M18.5,8.3c-0.5,0.3-0.6,0.9-0.4,1.4c0.3,0.5,0.9,0.6,1.4,0.4c0.5-0.3,0.6-0.9,0.4-1.4C19.6,8.1,19,8,18.5,8.3z   "/><path class="st0" d="M46.5,56.7c0.5-0.3,0.6-0.9,0.4-1.4S46,54.7,45.5,55s-0.6,0.9-0.4,1.4C45.4,56.9,46,57,46.5,56.7z"/><path class="st0" d="M9.6,18.1c-0.5-0.3-1.1-0.1-1.4,0.4C8,19,8.1,19.6,8.6,19.9c0.5,0.3,1.1,0.1,1.4-0.4   C10.3,19,10.1,18.4,9.6,18.1z"/><path class="st0" d="M55.4,46.9c0.5,0.3,1.1,0.1,1.4-0.4c0.3-0.5,0.1-1.1-0.4-1.4S55.3,45,55,45.5S54.9,46.6,55.4,46.9z"/><path class="st0" d="M5.5,31.5c-0.6,0-1,0.4-1,1c0,0.6,0.4,1,1,1c0.6,0,1-0.4,1-1C6.5,31.9,6.1,31.5,5.5,31.5z"/><path class="st0" d="M59.5,27.8c-2.4,0-4.3,1.7-4.7,4h-5.6c-0.1-2.5-0.8-4.9-1.9-7l4.9-2.8c0.6,0.8,1.5,1.3,2.4,1.6   c0.4,0.1,0.8,0.2,1.2,0.2c0.8,0,1.6-0.2,2.4-0.6c1.1-0.6,1.9-1.7,2.2-2.9s0.2-2.5-0.5-3.6c-0.6-1.1-1.7-1.9-2.9-2.2   s-2.5-0.2-3.6,0.5c-1.1,0.6-1.9,1.7-2.2,2.9c-0.3,1-0.2,2,0.2,2.9l-4.9,2.8c-1.3-2-3-3.8-5.1-5.1l2.8-4.8c0.5,0.2,1.1,0.3,1.7,0.3   c0.4,0,0.8-0.1,1.2-0.2c1.2-0.3,2.3-1.1,2.9-2.2c0.6-1.1,0.8-2.4,0.5-3.6S49.5,5.6,48.4,5c-1.1-0.6-2.4-0.8-3.6-0.5   c-1.2,0.3-2.3,1.1-2.9,2.2c-1.2,2-0.6,4.6,1.1,6l-2.8,4.9c-2.1-1.1-4.5-1.7-7-1.9v-5.6c2.3-0.4,4-2.3,4-4.7c0-2.6-2.1-4.8-4.8-4.8   s-4.8,2.1-4.8,4.8c0,2.4,1.7,4.3,4,4.7v5.6c-2.5,0.1-4.9,0.8-7,1.9L22,12.8c1.8-1.4,2.3-4,1.1-6c-0.6-1.1-1.7-1.9-2.9-2.2   C19,4.2,17.7,4.4,16.6,5c-1.1,0.6-1.9,1.7-2.2,2.9s-0.2,2.5,0.5,3.6c0.6,1.1,1.7,1.9,2.9,2.2c0.4,0.1,0.8,0.2,1.2,0.2   c0.6,0,1.1-0.1,1.7-0.3l2.8,4.8c-2,1.3-3.8,3-5.1,5.1l-4.9-2.8c0.8-2.1,0-4.6-2-5.8c-2.3-1.3-5.2-0.5-6.5,1.7   c-0.6,1.1-0.8,2.4-0.5,3.6s1.1,2.3,2.2,2.9c0.7,0.4,1.6,0.6,2.4,0.6c1.4,0,2.8-0.6,3.7-1.8l4.8,2.8c-1.1,2.1-1.7,4.5-1.9,7h-5.6   c-0.4-2.3-2.3-4-4.7-4c-2.6,0-4.8,2.1-4.8,4.8s2.1,4.8,4.8,4.8c2.4,0,4.3-1.7,4.7-4h5.6c0.1,2.5,0.8,4.9,1.9,7L12.8,43   c-1.4-1.8-4-2.3-6-1.1c-1.1,0.6-1.9,1.7-2.2,2.9S4.4,47.3,5,48.4s1.7,1.9,2.9,2.2c0.4,0.1,0.8,0.2,1.2,0.2c0.8,0,1.6-0.2,2.4-0.6   c2-1.2,2.9-3.7,2-5.8l4.9-2.8c1.3,2,3,3.8,5.1,5.1l-2.8,4.9c-0.9-0.4-1.9-0.4-2.9-0.2c-1.2,0.3-2.3,1.1-2.9,2.2   c-0.6,1.1-0.8,2.4-0.5,3.6s1.1,2.3,2.2,2.9c0.7,0.4,1.5,0.6,2.4,0.6c0.4,0,0.8-0.1,1.2-0.2c1.2-0.3,2.3-1.1,2.9-2.2   c0.6-1.1,0.8-2.4,0.5-3.6c-0.3-1-0.8-1.8-1.6-2.4l2.8-4.9c2.1,1.1,4.5,1.7,7,1.9v5.6c-2.3,0.4-4,2.3-4,4.7c0,2.6,2.1,4.8,4.8,4.8   s4.8-2.1,4.8-4.8c0-2.4-1.7-4.3-4-4.7v-5.6c2.5-0.1,4.9-0.8,7-1.9l2.8,4.9c-0.8,0.6-1.3,1.5-1.6,2.4c-0.3,1.2-0.2,2.5,0.5,3.6   c0.6,1.1,1.7,1.9,2.9,2.2c0.4,0.1,0.8,0.2,1.2,0.2c0.8,0,1.6-0.2,2.4-0.6c1.1-0.6,1.9-1.7,2.2-2.9s0.2-2.5-0.5-3.6   c-0.6-1.1-1.7-1.9-2.9-2.2c-1-0.3-2-0.2-2.9,0.2l-2.8-4.9c2-1.3,3.8-3,5.1-5.1l4.9,2.8c-0.4,0.9-0.4,1.9-0.2,2.9   c0.3,1.2,1.1,2.2,2.2,2.9c0.7,0.4,1.5,0.6,2.4,0.6c0.4,0,0.8-0.1,1.2-0.2c1.2-0.3,2.2-1.1,2.9-2.2s0.8-2.4,0.5-3.6   s-1.1-2.3-2.2-2.9c-1.1-0.6-2.4-0.8-3.6-0.5c-1,0.3-1.8,0.8-2.4,1.6l-4.9-2.8c1.1-2.1,1.7-4.5,1.9-7h5.6c0.4,2.3,2.3,4,4.7,4   c2.6,0,4.8-2.1,4.8-4.8S62.1,27.8,59.5,27.8z M54.3,16.2c0.5-0.3,1.1-0.4,1.6-0.4c1.1,0,2.2,0.6,2.8,1.6c0.9,1.6,0.4,3.5-1.2,4.4   c-1.6,0.9-3.5,0.4-4.4-1.2C52.2,19.1,52.7,17.1,54.3,16.2z M43.2,7.5c0.6-1,1.7-1.6,2.8-1.6c0.6,0,1.1,0.1,1.6,0.4   c1.6,0.9,2.1,2.9,1.2,4.4c-0.4,0.8-1.1,1.3-2,1.5c-0.8,0.2-1.7,0.1-2.5-0.3C42.8,11,42.3,9,43.2,7.5z M18.2,12.3   c-0.8-0.2-1.5-0.8-2-1.5c-0.9-1.6-0.4-3.5,1.2-4.4C17.9,6,18.4,5.9,19,5.9c1.1,0,2.2,0.6,2.8,1.6c0.9,1.6,0.4,3.5-1.2,4.4   C19.9,12.4,19,12.5,18.2,12.3z M7.5,21.8c-1.6-0.9-2.1-2.9-1.2-4.4c0.6-1,1.7-1.6,2.8-1.6c0.6,0,1.1,0.1,1.6,0.4   c1.6,0.9,2.1,2.9,1.2,4.4C11,22.2,9,22.7,7.5,21.8z M10.7,48.8c-0.8,0.4-1.6,0.6-2.5,0.3c-0.8-0.2-1.5-0.8-2-1.5   c-0.9-1.6-0.4-3.5,1.2-4.4c0.5-0.3,1.1-0.4,1.6-0.4c1.1,0,2.2,0.6,2.8,1.6C12.8,45.9,12.3,47.9,10.7,48.8z M21.8,57.5   c-0.9,1.6-2.9,2.1-4.4,1.2c-1.6-0.9-2.1-2.9-1.2-4.4c0.6-1,1.7-1.6,2.8-1.6c0.6,0,1.1,0.1,1.6,0.4C22.2,54,22.7,56,21.8,57.5z    M48.8,54.3c0.9,1.6,0.4,3.5-1.2,4.4c-1.6,0.9-3.5,0.4-4.4-1.2c-0.9-1.6-0.4-3.5,1.2-4.4c0.5-0.3,1.1-0.4,1.6-0.4   C47.1,52.6,48.2,53.2,48.8,54.3z M55.9,42.8c0.6,0,1.1,0.1,1.6,0.4c1.6,0.9,2.1,2.9,1.2,4.4c-0.4,0.8-1.1,1.3-2,1.5   c-0.8,0.2-1.7,0.1-2.5-0.3c-1.6-0.9-2.1-2.9-1.2-4.4C53.7,43.3,54.8,42.8,55.9,42.8z M29.3,5.5c0-1.8,1.5-3.3,3.3-3.3   s3.3,1.5,3.3,3.3s-1.5,3.3-3.3,3.3S29.3,7.3,29.3,5.5z M5.5,35.8c-1.8,0-3.3-1.5-3.3-3.3s1.5-3.3,3.3-3.3s3.3,1.5,3.3,3.3   S7.3,35.8,5.5,35.8z M35.8,59.5c0,1.8-1.5,3.3-3.3,3.3s-3.3-1.5-3.3-3.3s1.5-3.3,3.3-3.3S35.8,57.7,35.8,59.5z M32.5,47.8   c-8.4,0-15.3-6.8-15.3-15.3s6.8-15.3,15.3-15.3s15.3,6.8,15.3,15.3S40.9,47.8,32.5,47.8z M59.5,35.8c-1.8,0-3.3-1.5-3.3-3.3   s1.5-3.3,3.3-3.3s3.3,1.5,3.3,3.3S61.3,35.8,59.5,35.8z"/><circle class="st0" cx="59.5" cy="32.5" r="1"/><path class="st0" d="M8.6,45.1C8.1,45.4,8,46,8.3,46.5c0.3,0.5,0.9,0.6,1.4,0.4c0.5-0.3,0.6-0.9,0.4-1.4C9.7,45,9.1,44.9,8.6,45.1z   "/><path class="st0" d="M56.4,19.9c0.5-0.3,0.6-0.9,0.4-1.4c-0.3-0.5-0.9-0.6-1.4-0.4c-0.5,0.3-0.6,0.9-0.4,1.4   C55.3,20,55.9,20.1,56.4,19.9z"/><path class="st0" d="M19.5,55c-0.5-0.3-1.1-0.1-1.4,0.4s-0.1,1.1,0.4,1.4c0.5,0.3,1.1,0.1,1.4-0.4C20.1,55.9,20,55.3,19.5,55z"/><path class="st0" d="M45.5,10c0.5,0.3,1.1,0.1,1.4-0.4c0.3-0.5,0.1-1.1-0.4-1.4C46,8,45.4,8.1,45.1,8.6C44.9,9.1,45,9.7,45.5,10z"/><path class="st0" d="M33.1,31.3c-0.1,0-0.2-0.1-0.2-0.2v-3.6c0-0.1,0-0.2,0.1-0.2c0.1,0,0.2-0.1,0.2,0c0.6,0.3,1.1,0.7,1.2,1.4   l1.9-0.2c-0.2-0.8-0.5-1.4-1-1.8c-0.6-0.5-1.3-0.8-2.3-0.9c-0.1,0-0.2-0.1-0.2-0.2v-0.7h-0.9v0.7c0,0.1-0.1,0.2-0.2,0.2   c-1,0.1-1.8,0.5-2.4,1.1c-0.6,0.6-0.9,1.4-0.9,2.4c0,2,1.1,3.3,3.4,3.9c0.1,0,0.2,0.1,0.2,0.2v3.9c0,0.1,0,0.2-0.1,0.2   c-0.1,0-0.2,0.1-0.2,0c-0.4-0.2-0.7-0.5-1-0.9c-0.3-0.3-0.4-0.7-0.6-1.2l-2,0.2c0.4,2.2,1.6,3.3,3.7,3.6c0.1,0,0.2,0.1,0.2,0.2v0.8   h0.9v-0.9c0-0.1,0.1-0.2,0.2-0.2c1.1-0.2,2.1-0.6,2.7-1.3c0.7-0.7,1-1.6,1-2.7c0-1-0.3-1.8-0.9-2.4C35.5,32.2,34.6,31.7,33.1,31.3z    M32.1,30.7c0,0.1,0,0.2-0.1,0.2c0,0-0.1,0-0.1,0c0,0-0.1,0-0.1,0c-0.9-0.4-1.4-1-1.4-1.9c0-0.4,0.1-0.8,0.4-1.1   c0.3-0.3,0.6-0.6,1-0.7c0.1,0,0.2,0,0.2,0c0.1,0,0.1,0.1,0.1,0.2V30.7z M34.5,36.9L34.5,36.9c-0.3,0.4-0.8,0.6-1.3,0.7c0,0,0,0,0,0   c-0.1,0-0.1,0-0.2-0.1c-0.1,0-0.1-0.1-0.1-0.2v-3.6c0-0.1,0-0.2,0.1-0.2c0.1,0,0.1-0.1,0.2,0c1.2,0.3,1.8,1,1.8,2   C35.1,36,34.9,36.5,34.5,36.9z"/></g></svg>